<!-- icon666.com - MILLIONS vector ICONS FREE --><svg viewBox="0 0 152 152" xmlns="http://www.w3.org/2000/svg"><g id="Layer_2" data-name="Layer 2"><g id="Black_And_White" data-name="Black And White"><g id="_03.C" data-name="03.C"><path id="Icon" d="m140 0h-128a12 12 0 0 0 -12 12v128a12 12 0 0 0 12 12h128a12 12 0 0 0 12-12v-128a12 12 0 0 0 -12-12zm-74.45 96q3.14 5.34 10.77 5.34 6.47 0 9.89-3t3.63-9.67h18.65a28.42 28.42 0 0 1 -4.38 14.34 26.43 26.43 0 0 1 -11.25 9.65 38.3 38.3 0 0 1 -16.54 3.34q-15.32 0-24.15-10t-8.82-28.21v-3.85a47.17 47.17 0 0 1 4-20 30.06 30.06 0 0 1 11.44-13.26 32 32 0 0 1 17.32-4.68q14.16 0 22.76 7.45t9.78 20.55h-18.65c-.14-4.73-1.34-8.14-3.58-10.2s-5.67-3.1-10.26-3.1-8.16 1.74-10.31 5.23-3.32 9.07-3.42 16.73v5.5q0 12.47 3.12 17.84z"></path></g></g></g></svg>